<?xml version="1.0" encoding="UTF-8"?>
<svg id="Layer_1" data-name="Layer 1" xmlns="http://www.w3.org/2000/svg" xmlns:xlink="http://www.w3.org/1999/xlink" viewBox="0 0 100 100">
  <defs>
    <style>
      .cls-1 {
        fill: none;
      }

      .cls-2 {
        clip-path: url(#clippath);
      }

      .cls-3 {
        fill: #f5f5f5;
      }

      .cls-4 {
        fill: #e4b38b;
      }

      .cls-5 {
        fill: #ededed;
      }

      .cls-6 {
        fill: #306082;
      }

      .cls-7 {
        fill: #c24023;
      }

      .cls-8 {
        fill: #c46923;
      }

      .cls-9 {
        fill: #dedede;
      }

      .cls-10 {
        fill: #de9502;
      }

      .cls-11 {
        fill: #d36f6f;
      }

      .cls-12 {
        fill: #d47c02;
      }

      .cls-13 {
        fill: #e0a77b;
      }

      .cls-14 {
        fill: #d69d72;
      }

      .cls-15 {
        fill: #231e2b;
      }

      .cls-16 {
        fill: #3d6e8f;
      }
    </style>
    <clipPath id="clippath">
      <rect class="cls-1" width="100" height="100"/>
    </clipPath>
  </defs>
  <g class="cls-2">
    <g>
      <polygon class="cls-4" points="39.77 97.29 35.81 97.29 35.81 89.36 31.84 89.36 31.84 101.26 35.81 101.26 35.81 105.23 39.77 105.23 39.77 97.29"/>
      <rect class="cls-16" x="59.61" y="97.29" width="3.97" height="3.97"/>
      <polygon class="cls-6" points="59.61 97.29 47.71 97.29 47.71 101.26 43.74 101.26 43.74 109.2 39.77 109.2 39.77 113.16 67.55 113.16 67.55 109.2 63.58 109.2 63.58 101.26 59.61 101.26 59.61 97.29"/>
      <rect class="cls-16" x="43.74" y="97.29" width="3.97" height="3.97"/>
      <rect class="cls-14" x="35.81" y="89.36" width="3.97" height="7.94"/>
      <rect class="cls-14" x="71.52" y="89.36" width="7.94" height="3.97"/>
      <polygon class="cls-9" points="59.61 89.36 55.65 89.36 55.65 93.32 47.71 93.32 47.71 97.29 63.58 97.29 63.58 93.32 59.61 93.32 59.61 89.36"/>
      <rect class="cls-9" x="39.77" y="89.36" width="3.97" height="3.97"/>
      <rect class="cls-14" x="79.45" y="85.39" width="3.97" height="3.97"/>
      <rect class="cls-9" x="63.58" y="85.39" width="3.97" height="7.94"/>
      <rect class="cls-5" x="59.61" y="85.39" width="3.97" height="7.94"/>
      <rect class="cls-3" x="55.65" y="85.39" width="3.97" height="3.97"/>
      <rect class="cls-9" x="43.74" y="85.39" width="3.97" height="3.97"/>
      <polygon class="cls-5" points="43.74 89.36 43.74 85.39 47.71 85.39 47.71 93.32 55.65 93.32 55.65 85.39 51.68 85.39 51.68 77.45 43.74 77.45 43.74 81.42 39.77 81.42 39.77 85.39 35.81 85.39 35.81 89.36 43.74 89.36"/>
      <rect class="cls-14" x="83.42" y="81.42" width="3.97" height="3.97"/>
      <rect class="cls-14" x="71.52" y="81.42" width="3.97" height="3.97"/>
      <rect class="cls-9" x="67.55" y="81.42" width="3.97" height="3.97"/>
      <rect class="cls-5" x="63.58" y="77.45" width="3.97" height="7.94"/>
      <rect class="cls-3" x="59.61" y="81.42" width="3.97" height="3.97"/>
      <rect class="cls-14" x="55.65" y="81.42" width="3.97" height="3.97"/>
      <rect class="cls-3" x="51.68" y="81.42" width="3.97" height="3.97"/>
      <rect class="cls-3" x="35.81" y="81.42" width="3.97" height="3.97"/>
      <polygon class="cls-4" points="79.45 77.45 79.45 81.42 75.49 81.42 75.49 85.39 67.55 85.39 67.55 89.36 79.45 89.36 79.45 85.39 83.42 85.39 83.42 81.42 87.39 81.42 87.39 77.45 79.45 77.45"/>
      <rect class="cls-3" x="67.55" y="77.45" width="3.97" height="3.97"/>
      <rect class="cls-4" x="55.65" y="77.45" width="3.97" height="3.97"/>
      <polygon class="cls-14" points="51.68 81.42 55.65 81.42 55.65 77.45 59.61 77.45 59.61 73.49 51.68 73.49 51.68 81.42"/>
      <rect class="cls-3" x="39.77" y="77.45" width="3.97" height="3.97"/>
      <rect class="cls-9" x="59.61" y="73.49" width="3.97" height="7.94"/>
      <rect class="cls-9" x="47.71" y="73.49" width="3.97" height="3.97"/>
      <rect class="cls-14" x="71.52" y="69.52" width="3.97" height="3.97"/>
      <rect class="cls-13" x="43.74" y="69.52" width="27.77" height="3.97"/>
      <rect class="cls-14" x="39.77" y="69.52" width="3.97" height="3.97"/>
      <rect class="cls-14" x="75.49" y="65.55" width="3.97" height="3.97"/>
      <rect class="cls-13" x="39.77" y="65.55" width="3.97" height="3.97"/>
      <rect class="cls-11" x="55.65" y="61.58" width="7.94" height="3.97"/>
      <polygon class="cls-14" points="39.77 49.68 35.81 49.68 35.81 53.65 31.84 53.65 31.84 57.61 35.81 57.61 35.81 69.52 39.77 69.52 39.77 49.68"/>
      <rect class="cls-11" x="63.58" y="57.61" width="3.97" height="3.97"/>
      <rect class="cls-11" x="51.68" y="57.61" width="3.97" height="3.97"/>
      <rect class="cls-15" x="47.71" y="45.71" width="3.97" height="7.94"/>
      <rect class="cls-4" x="31.84" y="45.71" width="3.97" height="7.94"/>
      <rect class="cls-14" x="75.49" y="45.71" width="3.97" height="3.97"/>
      <path class="cls-4" d="m75.49,37.77h-3.97v-3.97h-23.81v3.97h-3.97v3.97h-3.97v23.81h3.97v3.97h31.74v-3.97h3.97v-15.87h-3.97v-11.9Zm-27.77,7.94h3.97v7.94h-3.97v-7.94Zm7.94,19.84v-3.97h-3.97v-3.97h3.97v3.97h7.94v-3.97h3.97v3.97h-3.97v3.97h-7.94Zm15.87-11.9h-3.97v-7.94h3.97v7.94Z"/>
      <rect class="cls-15" x="67.55" y="45.71" width="3.97" height="7.94"/>
      <rect class="cls-8" x="35.81" y="45.71" width="3.97" height="3.97"/>
      <rect class="cls-8" x="75.49" y="41.74" width="3.97" height="3.97"/>
      <rect class="cls-8" x="31.84" y="37.77" width="3.97" height="7.94"/>
      <rect class="cls-14" x="39.77" y="37.77" width="3.97" height="3.97"/>
      <rect class="cls-14" x="43.74" y="33.81" width="3.97" height="3.97"/>
      <rect class="cls-8" x="39.77" y="33.81" width="3.97" height="3.97"/>
      <rect class="cls-10" x="12" y="21.9" width="3.97" height="11.9"/>
      <rect class="cls-10" x="75.49" y="25.87" width="3.97" height="3.97"/>
      <rect class="cls-8" x="31.84" y="25.87" width="3.97" height="3.97"/>
      <rect class="cls-10" x="71.52" y="21.9" width="3.97" height="3.97"/>
      <polygon class="cls-12" points="39.77 21.9 39.77 25.87 35.81 25.87 35.81 29.84 31.84 29.84 31.84 37.77 35.81 37.77 35.81 45.71 39.77 45.71 39.77 33.81 71.52 33.81 71.52 37.77 75.49 37.77 75.49 41.74 79.45 41.74 79.45 29.84 75.49 29.84 75.49 25.87 71.52 25.87 71.52 21.9 63.58 21.9 63.58 17.94 43.74 17.94 43.74 21.9 39.77 21.9"/>
      <rect class="cls-8" x="35.81" y="21.9" width="3.97" height="3.97"/>
      <rect class="cls-10" x="63.58" y="17.94" width="7.94" height="3.97"/>
      <rect class="cls-8" x="39.77" y="17.94" width="3.97" height="3.97"/>
      <polygon class="cls-7" points="31.84 25.87 35.81 25.87 35.81 21.9 39.77 21.9 39.77 17.94 31.84 17.94 31.84 25.87"/>
      <polygon class="cls-8" points="31.84 17.94 27.87 17.94 27.87 21.9 23.9 21.9 23.9 25.87 19.94 25.87 19.94 33.81 15.97 33.81 15.97 41.74 19.94 41.74 19.94 45.71 23.9 45.71 23.9 37.77 27.87 37.77 27.87 25.87 31.84 25.87 31.84 17.94"/>
      <rect class="cls-10" x="15.97" y="13.97" width="3.97" height="7.94"/>
      <rect class="cls-10" x="31.84" y="13.97" width="3.97" height="3.97"/>
      <polygon class="cls-12" points="19.94 13.97 19.94 21.9 15.97 21.9 15.97 33.81 19.94 33.81 19.94 25.87 23.9 25.87 23.9 21.9 27.87 21.9 27.87 17.94 31.84 17.94 31.84 10 23.9 10 23.9 13.97 19.94 13.97"/>
      <rect class="cls-10" x="19.94" y="10" width="3.97" height="3.97"/>
    </g>
  </g>
</svg>