<?xml version="1.0" encoding="UTF-8"?>
<svg id="Layer_1" data-name="Layer 1" xmlns="http://www.w3.org/2000/svg" xmlns:xlink="http://www.w3.org/1999/xlink" viewBox="0 0 100 100">
  <defs>
    <style>
      .cls-1 {
        fill: none;
      }

      .cls-2 {
        clip-path: url(#clippath);
      }

      .cls-3 {
        fill: #f7feff;
      }

      .cls-4 {
        fill: #efefef;
      }

      .cls-5 {
        fill: #6b432b;
      }

      .cls-6 {
        fill: #9e6541;
      }

      .cls-7 {
        fill: #8c593a;
      }

      .cls-8 {
        fill: #231e2b;
      }

      .cls-9 {
        fill: #422928;
      }

      .cls-10 {
        fill: #36508a;
      }

      .cls-11 {
        fill: #362127;
      }

      .cls-12 {
        fill: #3f5ea1;
      }

      .cls-13 {
        fill: #464645;
      }

      .cls-14 {
        fill: #595652;
      }

      .cls-15 {
        fill: #393939;
      }
    </style>
    <clipPath id="clippath">
      <rect class="cls-1" x="0" width="100" height="100"/>
    </clipPath>
  </defs>
  <g class="cls-2">
    <g>
      <polygon class="cls-15" points="33.8 95.32 37.77 95.32 37.77 103.26 41.74 103.26 41.74 83.42 37.77 83.42 37.77 87.39 33.8 87.39 33.8 91.36 29.83 91.36 29.83 103.26 33.8 103.26 33.8 95.32"/>
      <rect class="cls-14" x="25.86" y="91.36" width="3.97" height="11.9"/>
      <polygon class="cls-13" points="57.61 87.39 53.64 87.39 53.64 95.32 49.67 95.32 49.67 91.36 45.7 91.36 45.7 83.42 41.74 83.42 41.74 103.26 57.61 103.26 57.61 87.39"/>
      <rect class="cls-14" x="49.67" y="91.36" width="3.97" height="3.97"/>
      <polygon class="cls-15" points="57.61 103.26 65.54 103.26 65.54 91.36 61.57 91.36 61.57 83.42 57.61 83.42 57.61 103.26"/>
      <rect class="cls-14" x="45.7" y="87.39" width="3.97" height="3.97"/>
      <rect class="cls-13" x="29.83" y="87.39" width="3.97" height="3.97"/>
      <rect class="cls-14" x="65.54" y="79.45" width="3.97" height="7.94"/>
      <rect class="cls-14" x="53.64" y="83.42" width="3.97" height="3.97"/>
      <rect class="cls-4" x="45.7" y="83.42" width="3.97" height="3.97"/>
      <polygon class="cls-13" points="33.8 87.39 37.77 87.39 37.77 83.42 41.74 83.42 41.74 79.45 33.8 79.45 33.8 87.39"/>
      <rect class="cls-14" x="29.83" y="79.45" width="3.97" height="7.94"/>
      <polygon class="cls-13" points="57.61 79.45 57.61 83.42 61.57 83.42 61.57 91.36 65.54 91.36 65.54 103.26 69.51 103.26 69.51 87.39 65.54 87.39 65.54 79.45 57.61 79.45"/>
      <rect class="cls-10" x="49.67" y="79.45" width="3.97" height="11.9"/>
      <rect class="cls-14" x="41.74" y="79.45" width="3.97" height="3.97"/>
      <rect class="cls-14" x="57.61" y="75.49" width="7.94" height="3.97"/>
      <rect class="cls-4" x="53.64" y="75.49" width="3.97" height="7.94"/>
      <rect class="cls-12" x="45.7" y="75.49" width="7.94" height="3.97"/>
      <rect class="cls-4" x="41.74" y="75.49" width="3.97" height="3.97"/>
      <rect class="cls-14" x="33.8" y="75.49" width="7.94" height="3.97"/>
      <rect class="cls-6" x="45.7" y="71.52" width="11.9" height="3.97"/>
      <rect class="cls-7" x="69.51" y="63.58" width="3.97" height="3.97"/>
      <polygon class="cls-3" points="41.74 55.65 41.74 59.61 45.7 59.61 45.7 63.58 61.57 63.58 61.57 59.61 65.54 59.61 65.54 55.65 41.74 55.65"/>
      <polygon class="cls-7" points="29.83 67.55 33.8 67.55 33.8 71.52 41.74 71.52 41.74 75.49 45.7 75.49 45.7 71.52 69.51 71.52 69.51 67.55 37.77 67.55 37.77 63.58 33.8 63.58 33.8 43.74 29.83 43.74 29.83 47.71 25.86 47.71 25.86 51.68 29.83 51.68 29.83 67.55"/>
      <rect class="cls-8" x="41.74" y="43.74" width="3.97" height="7.94"/>
      <rect class="cls-5" x="69.51" y="39.77" width="3.97" height="7.94"/>
      <rect class="cls-8" x="61.57" y="43.74" width="3.97" height="7.94"/>
      <rect class="cls-6" x="25.86" y="43.74" width="3.97" height="3.97"/>
      <rect class="cls-7" x="65.54" y="39.77" width="3.97" height="3.97"/>
      <path class="cls-6" d="m45.7,43.74v7.94h-3.97v-7.94h-3.97v3.97h-3.97v15.87h3.97v3.97h31.74v-3.97h3.97v-15.87h-3.97v-3.97h-3.97v7.94h-3.97v-7.94h3.97v-3.97h-23.81v3.97h3.97Zm19.84,11.9v3.97h-3.97v3.97h-15.87v-3.97h-3.97v-3.97h23.81Z"/>
      <rect class="cls-7" x="37.77" y="39.77" width="3.97" height="3.97"/>
      <polygon class="cls-5" points="33.8 43.74 33.8 47.71 37.77 47.71 37.77 39.77 29.83 39.77 29.83 43.74 33.8 43.74"/>
      <rect class="cls-9" x="73.48" y="35.81" width="3.97" height="3.97"/>
      <rect class="cls-7" x="41.74" y="35.81" width="15.87" height="3.97"/>
      <rect class="cls-9" x="25.86" y="35.81" width="3.97" height="3.97"/>
      <rect class="cls-9" x="73.48" y="23.9" width="3.97" height="3.97"/>
      <polygon class="cls-11" points="73.48 23.9 65.54 23.9 65.54 19.94 33.8 19.94 33.8 23.9 29.83 23.9 29.83 27.87 25.86 27.87 25.86 35.81 29.83 35.81 29.83 39.77 41.74 39.77 41.74 35.81 57.61 35.81 57.61 39.77 73.48 39.77 73.48 35.81 77.45 35.81 77.45 27.87 73.48 27.87 73.48 23.9"/>
      <rect class="cls-9" x="25.86" y="23.9" width="3.97" height="3.97"/>
      <rect class="cls-9" x="65.54" y="19.94" width="7.94" height="3.97"/>
      <rect class="cls-9" x="29.83" y="19.94" width="3.97" height="3.97"/>
      <rect class="cls-9" x="33.8" y="15.97" width="31.74" height="3.97"/>
    </g>
  </g>
</svg>