<?xml version="1.0" encoding="UTF-8"?>
<svg id="Layer_1" data-name="Layer 1" xmlns="http://www.w3.org/2000/svg" xmlns:xlink="http://www.w3.org/1999/xlink" viewBox="0 0 100 100">
  <defs>
    <style>
      .cls-1 {
        fill: none;
      }

      .cls-2 {
        clip-path: url(#clippath);
      }

      .cls-3 {
        fill: #e4b38b;
      }

      .cls-4 {
        fill: #e8e8e8;
      }

      .cls-5 {
        fill: #6d3837;
      }

      .cls-6 {
        fill: #b0392e;
      }

      .cls-7 {
        fill: #cfcfcf;
      }

      .cls-8 {
        fill: #dedede;
      }

      .cls-9 {
        fill: #d9a681;
      }

      .cls-10 {
        fill: #d69d72;
      }

      .cls-11 {
        fill: #231e2b;
      }

      .cls-12 {
        fill: #892727;
      }

      .cls-13 {
        fill: #522b29;
      }
    </style>
    <clipPath id="clippath">
      <rect class="cls-1" x="0" width="100" height="100"/>
    </clipPath>
  </defs>
  <g class="cls-2">
    <g>
      <rect class="cls-7" x="30.31" y="95.32" width="3.97" height="7.94"/>
      <rect class="cls-8" x="26.35" y="95.32" width="3.97" height="7.94"/>
      <rect class="cls-8" x="69.99" y="95.32" width="3.97" height="7.94"/>
      <rect class="cls-7" x="50.15" y="95.32" width="3.97" height="3.97"/>
      <rect class="cls-4" x="69.99" y="91.36" width="3.97" height="3.97"/>
      <rect class="cls-8" x="30.31" y="83.42" width="3.97" height="11.9"/>
      <rect class="cls-4" x="26.35" y="91.36" width="3.97" height="3.97"/>
      <polygon class="cls-7" points="66.03 83.42 62.06 83.42 62.06 87.39 58.09 87.39 58.09 103.26 62.06 103.26 62.06 95.32 66.03 95.32 66.03 103.26 69.99 103.26 69.99 91.36 66.03 91.36 66.03 83.42"/>
      <polygon class="cls-7" points="34.28 95.32 38.25 95.32 38.25 103.26 42.22 103.26 42.22 87.39 38.25 87.39 38.25 83.42 34.28 83.42 34.28 95.32"/>
      <rect class="cls-8" x="66.03" y="83.42" width="3.97" height="7.94"/>
      <rect class="cls-6" x="50.15" y="83.42" width="3.97" height="11.9"/>
      <rect class="cls-4" x="66.03" y="79.45" width="3.97" height="3.97"/>
      <rect class="cls-12" x="50.15" y="79.45" width="3.97" height="3.97"/>
      <rect class="cls-7" x="46.19" y="79.45" width="3.97" height="3.97"/>
      <rect class="cls-4" x="30.31" y="79.45" width="3.97" height="3.97"/>
      <rect class="cls-4" x="58.09" y="75.49" width="7.94" height="3.97"/>
      <rect class="cls-6" x="46.19" y="75.49" width="7.94" height="3.97"/>
      <rect class="cls-4" x="34.28" y="75.49" width="7.94" height="3.97"/>
      <polygon class="cls-8" points="54.12 99.29 50.15 99.29 50.15 83.42 46.19 83.42 46.19 71.52 42.22 71.52 42.22 79.45 34.28 79.45 34.28 83.42 38.25 83.42 38.25 87.39 42.22 87.39 42.22 103.26 58.09 103.26 58.09 87.39 62.06 87.39 62.06 83.42 66.03 83.42 66.03 79.45 58.09 79.45 58.09 71.52 54.12 71.52 54.12 99.29"/>
      <rect class="cls-3" x="50.15" y="71.52" width="3.97" height="3.97"/>
      <rect class="cls-10" x="69.99" y="63.58" width="3.97" height="3.97"/>
      <rect class="cls-10" x="50.15" y="59.61" width="7.94" height="3.97"/>
      <rect class="cls-9" x="34.28" y="59.61" width="3.97" height="3.97"/>
      <rect class="cls-10" x="58.09" y="55.65" width="3.97" height="3.97"/>
      <rect class="cls-10" x="46.19" y="55.65" width="3.97" height="3.97"/>
      <polygon class="cls-10" points="30.31 67.55 34.28 67.55 34.28 71.52 46.19 71.52 46.19 75.49 50.15 75.49 50.15 71.52 69.99 71.52 69.99 67.55 38.25 67.55 38.25 63.58 34.28 63.58 34.28 47.71 26.35 47.71 26.35 51.68 30.31 51.68 30.31 67.55"/>
      <rect class="cls-11" x="42.22" y="43.74" width="3.97" height="7.94"/>
      <rect class="cls-11" x="62.06" y="43.74" width="3.97" height="7.94"/>
      <rect class="cls-9" x="69.99" y="35.81" width="3.97" height="3.97"/>
      <path class="cls-3" d="m69.99,35.81h-31.74v3.97h-3.97v3.97h-7.94v3.97h7.94v11.9h3.97v7.94h31.74v-3.97h3.97v-23.81h-3.97v-3.97Zm-3.97,15.87h-3.97v-7.94h3.97v7.94Zm-23.81-7.94h3.97v7.94h-3.97v-7.94Zm7.94,19.84v-3.97h-3.97v-3.97h3.97v3.97h7.94v-3.97h3.97v3.97h-3.97v3.97h-7.94Z"/>
      <rect class="cls-9" x="34.28" y="35.81" width="3.97" height="3.97"/>
      <rect class="cls-9" x="42.22" y="31.84" width="27.77" height="3.97"/>
      <rect class="cls-5" x="26.35" y="31.84" width="3.97" height="3.97"/>
      <rect class="cls-5" x="69.99" y="23.9" width="3.97" height="3.97"/>
      <polygon class="cls-13" points="69.99 23.9 66.03 23.9 66.03 19.94 42.22 19.94 42.22 23.9 34.28 23.9 34.28 27.87 30.31 27.87 30.31 35.81 26.35 35.81 26.35 43.74 34.28 43.74 34.28 35.81 42.22 35.81 42.22 31.84 69.99 31.84 69.99 35.81 73.96 35.81 73.96 27.87 69.99 27.87 69.99 23.9"/>
      <rect class="cls-5" x="30.31" y="23.9" width="3.97" height="3.97"/>
      <rect class="cls-5" x="66.03" y="19.94" width="3.97" height="3.97"/>
      <rect class="cls-5" x="34.28" y="19.94" width="7.94" height="3.97"/>
      <rect class="cls-5" x="42.22" y="15.97" width="23.81" height="3.97"/>
    </g>
  </g>
</svg>