<?xml version="1.0" encoding="UTF-8"?>
<svg id="Layer_1" data-name="Layer 1" xmlns="http://www.w3.org/2000/svg" xmlns:xlink="http://www.w3.org/1999/xlink" viewBox="0 0 100 100">
  <defs>
    <style>
      .cls-1 {
        fill: none;
      }

      .cls-2 {
        clip-path: url(#clippath);
      }

      .cls-3 {
        fill: #e4b38b;
      }

      .cls-4 {
        fill: #e8e8e8;
      }

      .cls-5 {
        fill: #cb761a;
      }

      .cls-6 {
        fill: #de9173;
      }

      .cls-7 {
        fill: #d1d2d2;
      }

      .cls-8 {
        fill: #dd9646;
      }

      .cls-9 {
        fill: #d68529;
      }

      .cls-10 {
        fill: #e0a77b;
      }

      .cls-11 {
        fill: #e0e1e1;
      }

      .cls-12 {
        fill: #d69d72;
      }

      .cls-13 {
        fill: #231e2b;
      }
    </style>
    <clipPath id="clippath">
      <rect class="cls-1" x="0" width="100" height="100"/>
    </clipPath>
  </defs>
  <g class="cls-2">
    <g>
      <rect class="cls-7" x="35.45" y="97.29" width="15.87" height="3.97"/>
      <polygon class="cls-3" points="47.35 93.32 35.45 93.32 35.45 89.36 47.35 89.36 47.35 85.39 55.29 85.39 55.29 93.32 51.32 93.32 51.32 97.29 47.35 97.29 47.35 93.32"/>
      <rect class="cls-7" x="51.32" y="93.32" width="3.97" height="3.97"/>
      <polygon class="cls-12" points="71.16 89.36 71.16 85.39 79.09 85.39 79.09 89.36 75.13 89.36 75.13 93.32 71.16 93.32 71.16 97.29 63.22 97.29 63.22 93.32 59.26 93.32 59.26 89.36 71.16 89.36"/>
      <polygon class="cls-12" points="35.45 85.39 35.45 93.32 47.35 93.32 47.35 97.29 31.48 97.29 31.48 93.32 27.51 93.32 27.51 85.39 35.45 85.39"/>
      <rect class="cls-3" x="63.22" y="85.39" width="7.94" height="3.97"/>
      <polygon class="cls-3" points="83.06 89.36 79.09 89.36 79.09 85.39 71.16 85.39 71.16 81.42 75.13 81.42 75.13 77.45 79.09 77.45 79.09 81.42 87.03 81.42 87.03 85.39 83.06 85.39 83.06 89.36"/>
      <rect class="cls-4" x="27.51" y="81.42" width="3.97" height="3.97"/>
      <rect class="cls-4" x="63.22" y="81.42" width="3.97" height="3.97"/>
      <rect class="cls-4" x="31.48" y="77.45" width="7.94" height="3.97"/>
      <polygon class="cls-11" points="43.38 81.42 51.32 81.42 51.32 77.45 55.29 77.45 55.29 81.42 63.22 81.42 63.22 89.36 59.26 89.36 59.26 101.26 51.32 101.26 51.32 97.29 55.29 97.29 55.29 85.39 47.35 85.39 47.35 89.36 35.45 89.36 35.45 85.39 31.48 85.39 31.48 81.42 39.42 81.42 39.42 77.45 43.38 77.45 43.38 81.42"/>
      <rect class="cls-4" x="43.38" y="77.45" width="7.94" height="3.97"/>
      <rect class="cls-4" x="55.29" y="77.45" width="7.94" height="3.97"/>
      <rect class="cls-4" x="39.42" y="73.49" width="3.97" height="3.97"/>
      <rect class="cls-12" x="43.38" y="73.49" width="3.97" height="3.97"/>
      <rect class="cls-3" x="47.35" y="73.49" width="3.97" height="3.97"/>
      <rect class="cls-4" x="51.32" y="73.49" width="3.97" height="3.97"/>
      <polygon class="cls-10" points="59.26 69.52 59.26 65.55 63.22 65.55 63.22 73.49 39.42 73.49 39.42 69.52 59.26 69.52"/>
      <polygon class="cls-12" points="35.45 69.52 39.42 69.52 39.42 73.49 31.48 73.49 31.48 69.52 27.51 69.52 27.51 65.55 35.45 65.55 35.45 69.52"/>
      <rect class="cls-10" x="35.45" y="65.55" width="3.97" height="3.97"/>
      <rect class="cls-12" x="63.22" y="65.55" width="3.97" height="3.97"/>
      <rect class="cls-6" x="47.35" y="61.58" width="7.94" height="3.97"/>
      <rect class="cls-10" x="63.22" y="61.58" width="3.97" height="3.97"/>
      <rect class="cls-6" x="43.38" y="57.61" width="3.97" height="3.97"/>
      <rect class="cls-6" x="55.29" y="57.61" width="3.97" height="3.97"/>
      <path class="cls-3" d="m67.19,61.58v-15.87s-3.97,0-3.97,0v7.94h-3.97v-7.94h3.97s0-3.97,0-3.97h-27.77s0,23.81,0,23.81h3.97v3.97s19.84,0,19.84,0v-3.97h3.97s0-3.97,0-3.97h3.97Zm-23.81-15.87v7.94h-3.97v-7.94h3.97Zm15.87,11.9v3.97h-3.97s0,3.97,0,3.97h-7.94v-3.97s-3.97,0-3.97,0v-3.97h3.97v3.97s7.94,0,7.94,0v-3.97h3.97Z"/>
      <rect class="cls-5" x="67.19" y="57.61" width="3.97" height="3.97"/>
      <polygon class="cls-5" points="23.54 45.71 27.51 45.71 27.51 37.77 31.48 37.77 31.48 65.55 19.58 65.55 19.58 53.65 23.54 53.65 23.54 45.71"/>
      <rect class="cls-13" x="39.42" y="45.71" width="3.97" height="7.94"/>
      <rect class="cls-13" x="59.26" y="45.71" width="3.97" height="7.94"/>
      <rect class="cls-10" x="31.48" y="37.77" width="3.97" height="27.77"/>
      <rect class="cls-10" x="63.22" y="41.74" width="3.97" height="3.97"/>
      <rect class="cls-5" x="35.45" y="37.77" width="3.97" height="3.97"/>
      <rect class="cls-8" x="19.58" y="33.81" width="3.97" height="3.97"/>
      <polygon class="cls-9" points="23.54 29.84 27.51 29.84 27.51 25.87 35.45 25.87 35.45 21.9 59.26 21.9 59.26 25.87 55.29 25.87 55.29 29.84 59.26 29.84 59.26 37.77 63.22 37.77 63.22 29.84 59.26 29.84 59.26 25.87 67.19 25.87 67.19 29.84 71.16 29.84 71.16 57.61 67.19 57.61 67.19 41.74 39.42 41.74 39.42 37.77 35.45 37.77 35.45 33.81 31.48 33.81 31.48 37.77 27.51 37.77 27.51 45.71 23.54 45.71 23.54 53.65 19.58 53.65 19.58 37.77 23.54 37.77 23.54 29.84"/>
      <rect class="cls-5" x="31.48" y="33.81" width="3.97" height="3.97"/>
      <rect class="cls-8" x="59.26" y="29.84" width="3.97" height="7.94"/>
      <rect class="cls-8" x="23.54" y="25.87" width="3.97" height="3.97"/>
      <rect class="cls-8" x="55.29" y="25.87" width="3.97" height="3.97"/>
      <rect class="cls-8" x="67.19" y="25.87" width="3.97" height="3.97"/>
      <rect class="cls-8" x="27.51" y="21.9" width="7.94" height="3.97"/>
      <rect class="cls-8" x="59.26" y="21.9" width="7.94" height="3.97"/>
      <rect class="cls-8" x="35.45" y="17.94" width="23.81" height="3.97"/>
    </g>
  </g>
</svg>